<svg xmlns="http://www.w3.org/2000/svg" width="1200" height="790" viewBox="0 0 1200 790">
<rect width="1200" height="790" fill="white"/>
<g font-family="sans-serif" fill="#222">
<text x="600" y="28" text-anchor="middle" font-size="22">FP16 GH200 — prefill</text>
<text x="600" y="51" text-anchor="middle" font-size="13">Mean of two process medians; whiskers: min/max process median. Log axes; attention API only.</text>
<line x1="115" y1="78" x2="147" y2="78" stroke="#1664c0" stroke-width="2"/>
<text x="155" y="82" font-size="13">fa4_eager</text>
<line x1="390" y1="78" x2="422" y2="78" stroke="#1664c0" stroke-width="2" stroke-dasharray="6 4"/>
<text x="430" y="82" font-size="13">fa4_graph</text>
<line x1="665" y1="78" x2="697" y2="78" stroke="#c65d12" stroke-width="2"/>
<text x="705" y="82" font-size="13">batchprefill_eager</text>
<line x1="940" y1="78" x2="972" y2="78" stroke="#c65d12" stroke-width="2" stroke-dasharray="6 4"/>
<text x="980" y="82" font-size="13">batchprefill_graph</text>
<text x="320.0" y="120" text-anchor="middle" font-size="17">Batch = 1</text>
<line x1="85" y1="360.0" x2="555" y2="360.0" stroke="#ddd"/>
<text x="77" y="364.0" text-anchor="end" font-size="12">100</text>
<line x1="85" y1="303.75" x2="555" y2="303.75" stroke="#ddd"/>
<text x="77" y="307.75" text-anchor="end" font-size="12">316</text>
<line x1="85" y1="247.5" x2="555" y2="247.5" stroke="#ddd"/>
<text x="77" y="251.5" text-anchor="end" font-size="12">1000</text>
<line x1="85" y1="191.25" x2="555" y2="191.25" stroke="#ddd"/>
<text x="77" y="195.25" text-anchor="end" font-size="12">3162</text>
<line x1="85" y1="135.0" x2="555" y2="135.0" stroke="#ddd"/>
<text x="77" y="139.0" text-anchor="end" font-size="12">10000</text>
<text x="27" y="247.5" font-size="12" transform="rotate(-90 27 247.5)">Latency (us, log)</text>
<text x="85.0" y="380" text-anchor="middle" font-size="12">4096</text>
<text x="320.0" y="380" text-anchor="middle" font-size="12">8192</text>
<text x="555.0" y="380" text-anchor="middle" font-size="12">16384</text>
<text x="320.0" y="403" text-anchor="middle" font-size="13">Total KV length (log2)</text>
<line x1="85.0" x2="85.0" y1="329.9901073035308" y2="329.88110354821623" stroke="#1664c0" stroke-width="2"/>
<circle cx="85.0" cy="329.93557502710365" r="3" fill="#1664c0"/>
<line x1="320.0" x2="320.0" y1="270.849883250359" y2="270.2134833356032" stroke="#1664c0" stroke-width="2"/>
<circle cx="320.0" cy="270.530647124602" r="3" fill="#1664c0"/>
<line x1="555.0" x2="555.0" y1="207.72549960518006" y2="207.61522826452597" stroke="#1664c0" stroke-width="2"/>
<circle cx="555.0" cy="207.67033282496868" r="3" fill="#1664c0"/>
<polyline points="85.0,329.93557502710365 320.0,270.530647124602 555.0,207.67033282496868" fill="none" stroke="#1664c0" stroke-width="2"/>
<line x1="85.0" x2="85.0" y1="331.17360740098934" y2="330.7703245392348" stroke="#1664c0" stroke-width="2"/>
<circle cx="85.0" cy="330.9715498760876" r="3" fill="#1664c0"/>
<line x1="320.0" x2="320.0" y1="270.5951301619931" y2="270.5035393362871" stroke="#1664c0" stroke-width="2"/>
<circle cx="320.0" cy="270.5493132868004" r="3" fill="#1664c0"/>
<line x1="555.0" x2="555.0" y1="207.64988277733391" y2="207.38885813306308" stroke="#1664c0" stroke-width="2"/>
<circle cx="555.0" cy="207.51919613982614" r="3" fill="#1664c0"/>
<polyline points="85.0,330.9715498760876 320.0,270.5493132868004 555.0,207.51919613982614" fill="none" stroke="#1664c0" stroke-width="2" stroke-dasharray="6 4"/>
<line x1="85.0" x2="85.0" y1="314.59258420760233" y2="314.5443079532437" stroke="#c65d12" stroke-width="2"/>
<circle cx="85.0" cy="314.56844011775956" r="3" fill="#c65d12"/>
<line x1="320.0" x2="320.0" y1="250.68388669320194" y2="250.41109985834282" stroke="#c65d12" stroke-width="2"/>
<circle cx="320.0" cy="250.54730289660256" r="3" fill="#c65d12"/>
<line x1="555.0" x2="555.0" y1="184.52074479078678" y2="184.2257460335739" stroke="#c65d12" stroke-width="2"/>
<circle cx="555.0" cy="184.3730227672081" r="3" fill="#c65d12"/>
<polyline points="85.0,314.56844011775956 320.0,250.54730289660256 555.0,184.3730227672081" fill="none" stroke="#c65d12" stroke-width="2"/>
<line x1="85.0" x2="85.0" y1="314.9352803455995" y2="314.52303833541254" stroke="#c65d12" stroke-width="2"/>
<circle cx="85.0" cy="314.7287245536712" r="3" fill="#c65d12"/>
<line x1="320.0" x2="320.0" y1="250.72582898013323" y2="250.05606951958424" stroke="#c65d12" stroke-width="2"/>
<circle cx="320.0" cy="250.38980160506054" r="3" fill="#c65d12"/>
<line x1="555.0" x2="555.0" y1="184.33596305413909" y2="184.33170153084424" stroke="#c65d12" stroke-width="2"/>
<circle cx="555.0" cy="184.33383224602915" r="3" fill="#c65d12"/>
<polyline points="85.0,314.7287245536712 320.0,250.38980160506054 555.0,184.33383224602915" fill="none" stroke="#c65d12" stroke-width="2" stroke-dasharray="6 4"/>
<text x="915.0" y="120" text-anchor="middle" font-size="17">Batch = 4</text>
<line x1="680" y1="360.0" x2="1150" y2="360.0" stroke="#ddd"/>
<text x="672" y="364.0" text-anchor="end" font-size="12">316</text>
<line x1="680" y1="303.75" x2="1150" y2="303.75" stroke="#ddd"/>
<text x="672" y="307.75" text-anchor="end" font-size="12">1000</text>
<line x1="680" y1="247.5" x2="1150" y2="247.5" stroke="#ddd"/>
<text x="672" y="251.5" text-anchor="end" font-size="12">3162</text>
<line x1="680" y1="191.25" x2="1150" y2="191.25" stroke="#ddd"/>
<text x="672" y="195.25" text-anchor="end" font-size="12">10000</text>
<line x1="680" y1="135.0" x2="1150" y2="135.0" stroke="#ddd"/>
<text x="672" y="139.0" text-anchor="end" font-size="12">31623</text>
<text x="622" y="247.5" font-size="12" transform="rotate(-90 622 247.5)">Latency (us, log)</text>
<text x="680.0" y="380" text-anchor="middle" font-size="12">4096</text>
<text x="915.0" y="380" text-anchor="middle" font-size="12">8192</text>
<text x="1150.0" y="380" text-anchor="middle" font-size="12">16384</text>
<text x="915.0" y="403" text-anchor="middle" font-size="13">Total KV length (log2)</text>
<line x1="680.0" x2="680.0" y1="319.8937742997489" y2="319.14422618152184" stroke="#1664c0" stroke-width="2"/>
<circle cx="680.0" cy="319.5175628726857" r="3" fill="#1664c0"/>
<line x1="915.0" x2="915.0" y1="258.7656886432551" y2="258.34540664373185" stroke="#1664c0" stroke-width="2"/>
<circle cx="915.0" cy="258.5550957319657" r="3" fill="#1664c0"/>
<line x1="1150.0" x2="1150.0" y1="192.9442224124121" y2="192.67357986050538" stroke="#1664c0" stroke-width="2"/>
<circle cx="1150.0" cy="192.80871373853125" r="3" fill="#1664c0"/>
<polyline points="680.0,319.5175628726857 915.0,258.5550957319657 1150.0,192.80871373853125" fill="none" stroke="#1664c0" stroke-width="2"/>
<line x1="680.0" x2="680.0" y1="320.59151129593505" y2="320.229374186108" stroke="#1664c0" stroke-width="2"/>
<circle cx="680.0" cy="320.4101072211495" r="3" fill="#1664c0"/>
<line x1="915.0" x2="915.0" y1="258.40108845645307" y2="258.31987498115893" stroke="#1664c0" stroke-width="2"/>
<circle cx="915.0" cy="258.3604648443679" r="3" fill="#1664c0"/>
<line x1="1150.0" x2="1150.0" y1="193.105548234338" y2="193.01891651111274" stroke="#1664c0" stroke-width="2"/>
<circle cx="1150.0" cy="193.06221317158472" r="3" fill="#1664c0"/>
<polyline points="680.0,320.4101072211495 915.0,258.3604648443679 1150.0,193.06221317158472" fill="none" stroke="#1664c0" stroke-width="2" stroke-dasharray="6 4"/>
<line x1="680.0" x2="680.0" y1="312.3684472050933" y2="311.381415237821" stroke="#c65d12" stroke-width="2"/>
<circle cx="680.0" cy="311.8724387612625" r="3" fill="#c65d12"/>
<line x1="915.0" x2="915.0" y1="249.8588876922025" y2="249.8136890033474" stroke="#c65d12" stroke-width="2"/>
<circle cx="915.0" cy="249.83628312110787" r="3" fill="#c65d12"/>
<line x1="1150.0" x2="1150.0" y1="183.4493297958175" y2="183.38503538215295" stroke="#c65d12" stroke-width="2"/>
<circle cx="1150.0" cy="183.41717201302947" r="3" fill="#c65d12"/>
<polyline points="680.0,311.8724387612625 915.0,249.83628312110787 1150.0,183.41717201302947" fill="none" stroke="#c65d12" stroke-width="2"/>
<line x1="680.0" x2="680.0" y1="312.15345730201693" y2="311.5249247576559" stroke="#c65d12" stroke-width="2"/>
<circle cx="680.0" cy="311.8381803217885" r="3" fill="#c65d12"/>
<line x1="915.0" x2="915.0" y1="249.92251612711752" y2="249.79845084761746" stroke="#c65d12" stroke-width="2"/>
<circle cx="915.0" cy="249.8604441075609" r="3" fill="#c65d12"/>
<line x1="1150.0" x2="1150.0" y1="183.3788271439688" y2="183.17700181204577" stroke="#c65d12" stroke-width="2"/>
<circle cx="1150.0" cy="183.27781026444987" r="3" fill="#c65d12"/>
<polyline points="680.0,311.8381803217885 915.0,249.8604441075609 1150.0,183.27781026444987" fill="none" stroke="#c65d12" stroke-width="2" stroke-dasharray="6 4"/>
<text x="320.0" y="445" text-anchor="middle" font-size="17">Batch = 8</text>
<line x1="85" y1="685.0" x2="555" y2="685.0" stroke="#ddd"/>
<text x="77" y="689.0" text-anchor="end" font-size="12">1000</text>
<line x1="85" y1="610.0" x2="555" y2="610.0" stroke="#ddd"/>
<text x="77" y="614.0" text-anchor="end" font-size="12">3162</text>
<line x1="85" y1="535.0" x2="555" y2="535.0" stroke="#ddd"/>
<text x="77" y="539.0" text-anchor="end" font-size="12">10000</text>
<line x1="85" y1="460.0" x2="555" y2="460.0" stroke="#ddd"/>
<text x="77" y="464.0" text-anchor="end" font-size="12">31623</text>
<text x="27" y="572.5" font-size="12" transform="rotate(-90 27 572.5)">Latency (us, log)</text>
<text x="85.0" y="705" text-anchor="middle" font-size="12">4096</text>
<text x="320.0" y="705" text-anchor="middle" font-size="12">8192</text>
<text x="555.0" y="705" text-anchor="middle" font-size="12">16384</text>
<text x="320.0" y="728" text-anchor="middle" font-size="13">Total KV length (log2)</text>
<line x1="85.0" x2="85.0" y1="663.0172814843871" y2="662.8005341407036" stroke="#1664c0" stroke-width="2"/>
<circle cx="85.0" cy="662.9088176675107" r="3" fill="#1664c0"/>
<line x1="320.0" x2="320.0" y1="580.023269232635" y2="579.8665103827233" stroke="#1664c0" stroke-width="2"/>
<circle cx="320.0" cy="579.9448426558577" r="3" fill="#1664c0"/>
<line x1="555.0" x2="555.0" y1="492.84235378444043" y2="492.8159457871086" stroke="#1664c0" stroke-width="2"/>
<circle cx="555.0" cy="492.82914844762274" r="3" fill="#1664c0"/>
<polyline points="85.0,662.9088176675107 320.0,579.9448426558577 555.0,492.82914844762274" fill="none" stroke="#1664c0" stroke-width="2"/>
<line x1="85.0" x2="85.0" y1="663.8521441279248" y2="663.1275304044748" stroke="#1664c0" stroke-width="2"/>
<circle cx="85.0" cy="663.4888297655997" r="3" fill="#1664c0"/>
<line x1="320.0" x2="320.0" y1="580.1612118234549" y2="580.1030716032228" stroke="#1664c0" stroke-width="2"/>
<circle cx="320.0" cy="580.1321352271772" r="3" fill="#1664c0"/>
<line x1="555.0" x2="555.0" y1="492.8373970788199" y2="492.74373553413136" stroke="#1664c0" stroke-width="2"/>
<circle cx="555.0" cy="492.79054947364955" r="3" fill="#1664c0"/>
<polyline points="85.0,663.4888297655997 320.0,580.1321352271772 555.0,492.79054947364955" fill="none" stroke="#1664c0" stroke-width="2" stroke-dasharray="6 4"/>
<line x1="85.0" x2="85.0" y1="654.2672864535912" y2="654.0307493770141" stroke="#c65d12" stroke-width="2"/>
<circle cx="85.0" cy="654.1489105577373" r="3" fill="#c65d12"/>
<line x1="320.0" x2="320.0" y1="568.8851294975029" y2="568.6288817453" stroke="#c65d12" stroke-width="2"/>
<circle cx="320.0" cy="568.7568796261169" r="3" fill="#c65d12"/>
<line x1="555.0" x2="555.0" y1="479.9061090669131" y2="479.8353931302168" stroke="#c65d12" stroke-width="2"/>
<circle cx="555.0" cy="479.8707415030338" r="3" fill="#c65d12"/>
<polyline points="85.0,654.1489105577373 320.0,568.7568796261169 555.0,479.8707415030338" fill="none" stroke="#c65d12" stroke-width="2"/>
<line x1="85.0" x2="85.0" y1="653.7292185693552" y2="653.60064621007" stroke="#c65d12" stroke-width="2"/>
<circle cx="85.0" cy="653.664900669974" r="3" fill="#c65d12"/>
<line x1="320.0" x2="320.0" y1="568.9412988920027" y2="568.8556777009612" stroke="#c65d12" stroke-width="2"/>
<circle cx="320.0" cy="568.8984742296292" r="3" fill="#c65d12"/>
<line x1="555.0" x2="555.0" y1="479.7482621790029" y2="479.7034866185176" stroke="#c65d12" stroke-width="2"/>
<circle cx="555.0" cy="479.72587055181066" r="3" fill="#c65d12"/>
<polyline points="85.0,653.664900669974 320.0,568.8984742296292 555.0,479.72587055181066" fill="none" stroke="#c65d12" stroke-width="2" stroke-dasharray="6 4"/>
<text x="915.0" y="445" text-anchor="middle" font-size="17">Batch = 16</text>
<line x1="680" y1="685.0" x2="1150" y2="685.0" stroke="#ddd"/>
<text x="672" y="689.0" text-anchor="end" font-size="12">1000</text>
<line x1="680" y1="628.75" x2="1150" y2="628.75" stroke="#ddd"/>
<text x="672" y="632.75" text-anchor="end" font-size="12">3162</text>
<line x1="680" y1="572.5" x2="1150" y2="572.5" stroke="#ddd"/>
<text x="672" y="576.5" text-anchor="end" font-size="12">10000</text>
<line x1="680" y1="516.25" x2="1150" y2="516.25" stroke="#ddd"/>
<text x="672" y="520.25" text-anchor="end" font-size="12">31623</text>
<line x1="680" y1="460.0" x2="1150" y2="460.0" stroke="#ddd"/>
<text x="672" y="464.0" text-anchor="end" font-size="12">100000</text>
<text x="622" y="572.5" font-size="12" transform="rotate(-90 622 572.5)">Latency (us, log)</text>
<text x="680.0" y="705" text-anchor="middle" font-size="12">4096</text>
<text x="915.0" y="705" text-anchor="middle" font-size="12">8192</text>
<text x="1150.0" y="705" text-anchor="middle" font-size="12">16384</text>
<text x="915.0" y="728" text-anchor="middle" font-size="13">Total KV length (log2)</text>
<line x1="680.0" x2="680.0" y1="633.8262078292323" y2="633.6248996966588" stroke="#1664c0" stroke-width="2"/>
<circle cx="680.0" cy="633.7254500828205" r="3" fill="#1664c0"/>
<line x1="915.0" x2="915.0" y1="571.4353404751153" y2="571.2530168180625" stroke="#1664c0" stroke-width="2"/>
<circle cx="915.0" cy="571.3440935995936" r="3" fill="#1664c0"/>
<line x1="1150.0" x2="1150.0" y1="507.3267086458332" y2="507.22369030157165" stroke="#1664c0" stroke-width="2"/>
<circle cx="1150.0" cy="507.2751723216771" r="3" fill="#1664c0"/>
<polyline points="680.0,633.7254500828205 915.0,571.3440935995936 1150.0,507.2751723216771" fill="none" stroke="#1664c0" stroke-width="2"/>
<line x1="680.0" x2="680.0" y1="634.3933048469914" y2="633.6383395199298" stroke="#1664c0" stroke-width="2"/>
<circle cx="680.0" cy="634.0143639640614" r="3" fill="#1664c0"/>
<line x1="915.0" x2="915.0" y1="571.6978426313566" y2="571.512102011336" stroke="#1664c0" stroke-width="2"/>
<circle cx="915.0" cy="571.6048840567173" r="3" fill="#1664c0"/>
<line x1="1150.0" x2="1150.0" y1="507.33641563713104" y2="507.20301824809764" stroke="#1664c0" stroke-width="2"/>
<circle cx="1150.0" cy="507.2696714157538" r="3" fill="#1664c0"/>
<polyline points="680.0,634.0143639640614 915.0,571.6048840567173 1150.0,507.2696714157538" fill="none" stroke="#1664c0" stroke-width="2" stroke-dasharray="6 4"/>
<line x1="680.0" x2="680.0" y1="627.4350880046363" y2="627.396746223902" stroke="#c65d12" stroke-width="2"/>
<circle cx="680.0" cy="627.4159133531444" r="3" fill="#c65d12"/>
<line x1="915.0" x2="915.0" y1="563.3616947250712" y2="563.2974219029376" stroke="#c65d12" stroke-width="2"/>
<circle cx="915.0" cy="563.3295477451506" r="3" fill="#c65d12"/>
<line x1="1150.0" x2="1150.0" y1="496.9964220539475" y2="496.9013998456998" stroke="#c65d12" stroke-width="2"/>
<circle cx="1150.0" cy="496.948887849219" r="3" fill="#c65d12"/>
<polyline points="680.0,627.4159133531444 915.0,563.3295477451506 1150.0,496.948887849219" fill="none" stroke="#c65d12" stroke-width="2"/>
<line x1="680.0" x2="680.0" y1="627.6534728856878" y2="627.3454472641504" stroke="#c65d12" stroke-width="2"/>
<circle cx="680.0" cy="627.4992173322375" r="3" fill="#c65d12"/>
<line x1="915.0" x2="915.0" y1="563.1394039032805" y2="563.0239448057869" stroke="#c65d12" stroke-width="2"/>
<circle cx="915.0" cy="563.081640248643" r="3" fill="#c65d12"/>
<line x1="1150.0" x2="1150.0" y1="496.9984346501022" y2="496.8787768960992" stroke="#c65d12" stroke-width="2"/>
<circle cx="1150.0" cy="496.9385691415955" r="3" fill="#c65d12"/>
<polyline points="680.0,627.4992173322375 915.0,563.081640248643 1150.0,496.9385691415955" fill="none" stroke="#c65d12" stroke-width="2" stroke-dasharray="6 4"/>
</g></svg>